<svg width="16" height="20" viewBox="0 0 16 20" fill="none" xmlns="http://www.w3.org/2000/svg">
<path d="M7.77778 9.72211C8.3125 9.72211 8.77026 9.53172 9.15104 9.15093C9.53183 8.77015 9.72222 8.31239 9.72222 7.77767C9.72222 7.24295 9.53183 6.78519 9.15104 6.40441C8.77026 6.02362 8.3125 5.83322 7.77778 5.83322C7.24306 5.83322 6.7853 6.02362 6.40451 6.40441C6.02373 6.78519 5.83333 7.24295 5.83333 7.77767C5.83333 8.31239 6.02373 8.77015 6.40451 9.15093C6.7853 9.53172 7.24306 9.72211 7.77778 9.72211ZM7.77778 16.8679C9.75463 15.0531 11.2211 13.4044 12.1771 11.9218C13.1331 10.4391 13.6111 9.12258 13.6111 7.97211C13.6111 6.20591 13.048 4.75973 11.9219 3.63357C10.7957 2.50741 9.41435 1.94434 7.77778 1.94434C6.1412 1.94434 4.75984 2.50741 3.63368 3.63357C2.50752 4.75973 1.94444 6.20591 1.94444 7.97211C1.94444 9.12258 2.42245 10.4391 3.37847 11.9218C4.33449 13.4044 5.80093 15.0531 7.77778 16.8679ZM7.77778 19.4443C5.16898 17.2244 3.22049 15.1625 1.93229 13.2586C0.644097 11.3546 0 9.59248 0 7.97211C0 5.54156 0.781829 3.60522 2.34549 2.16309C3.90914 0.720957 5.71991 -0.000108719 7.77778 -0.000108719C9.83565 -0.000108719 11.6464 0.720957 13.2101 2.16309C14.7737 3.60522 15.5556 5.54156 15.5556 7.97211C15.5556 9.59248 14.9115 11.3546 13.6233 13.2586C12.3351 15.1625 10.3866 17.2244 7.77778 19.4443Z" fill="#F2A20D"/>
</svg>
