<svg width="18" height="18" viewBox="0 0 18 18" fill="none" xmlns="http://www.w3.org/2000/svg">
<path d="M11.1806 8.50694C10.8403 8.50694 10.5527 8.38947 10.3177 8.15451C10.0828 7.91956 9.96528 7.63194 9.96528 7.29167C9.96528 6.95139 10.0828 6.66377 10.3177 6.42882C10.5527 6.19387 10.8403 6.07639 11.1806 6.07639C11.5208 6.07639 11.8084 6.19387 12.0434 6.42882C12.2784 6.66377 12.3958 6.95139 12.3958 7.29167C12.3958 7.63194 12.2784 7.91956 12.0434 8.15451C11.8084 8.38947 11.5208 8.50694 11.1806 8.50694ZM6.31944 8.50694C5.97917 8.50694 5.69155 8.38947 5.4566 8.15451C5.22164 7.91956 5.10417 7.63194 5.10417 7.29167C5.10417 6.95139 5.22164 6.66377 5.4566 6.42882C5.69155 6.19387 5.97917 6.07639 6.31944 6.07639C6.65972 6.07639 6.94734 6.19387 7.18229 6.42882C7.41725 6.66377 7.53472 6.95139 7.53472 7.29167C7.53472 7.63194 7.41725 7.91956 7.18229 8.15451C6.94734 8.38947 6.65972 8.50694 6.31944 8.50694ZM8.75 13.6111C7.77778 13.6111 6.89873 13.3438 6.11285 12.809C5.32697 12.2743 4.74769 11.5694 4.375 10.6944H13.125C12.7523 11.5694 12.173 12.2743 11.3872 12.809C10.6013 13.3438 9.72222 13.6111 8.75 13.6111ZM8.75 17.5C7.53472 17.5 6.39641 17.2691 5.33507 16.8073C4.27373 16.3455 3.35012 15.7216 2.56424 14.9358C1.77836 14.1499 1.15451 13.2263 0.692708 12.1649C0.230903 11.1036 0 9.96528 0 8.75C0 7.53472 0.230903 6.39641 0.692708 5.33507C1.15451 4.27373 1.77836 3.35012 2.56424 2.56424C3.35012 1.77836 4.27373 1.15451 5.33507 0.692709C6.39641 0.230902 7.53472 0 8.75 0C9.96528 0 11.1036 0.230902 12.1649 0.692709C13.2263 1.15451 14.1499 1.77836 14.9358 2.56424C15.7216 3.35012 16.3455 4.27373 16.8073 5.33507C17.2691 6.39641 17.5 7.53472 17.5 8.75C17.5 9.96528 17.2691 11.1036 16.8073 12.1649C16.3455 13.2263 15.7216 14.1499 14.9358 14.9358C14.1499 15.7216 13.2263 16.3455 12.1649 16.8073C11.1036 17.2691 9.96528 17.5 8.75 17.5ZM8.75 15.5556C10.6296 15.5556 12.2338 14.8912 13.5625 13.5625C14.8912 12.2338 15.5556 10.6296 15.5556 8.75C15.5556 6.87037 14.8912 5.2662 13.5625 3.9375C12.2338 2.6088 10.6296 1.94444 8.75 1.94444C8.65278 1.94444 8.55556 1.94444 8.45833 1.94444C8.36111 1.94444 8.26389 1.96065 8.16667 1.99306C8.06944 2.09028 8.00463 2.1956 7.97222 2.30903C7.93982 2.42245 7.92361 2.54398 7.92361 2.67361C7.92361 3.01389 8.04109 3.3015 8.27604 3.53646C8.511 3.77141 8.79861 3.88889 9.13889 3.88889C9.28472 3.88889 9.4184 3.86458 9.53993 3.81597C9.66146 3.76736 9.78704 3.74306 9.91667 3.74306C10.1111 3.74306 10.2731 3.81597 10.4028 3.96181C10.5324 4.10764 10.5972 4.27778 10.5972 4.47222C10.5972 4.84491 10.423 5.08391 10.0747 5.18924C9.72627 5.29456 9.41435 5.34722 9.13889 5.34722C8.40972 5.34722 7.78183 5.08391 7.25521 4.55729C6.72859 4.03067 6.46528 3.40278 6.46528 2.67361C6.46528 2.625 6.46528 2.57639 6.46528 2.52778C6.46528 2.47917 6.47338 2.41435 6.48958 2.33333C5.14468 2.81944 4.05093 3.63773 3.20833 4.78819C2.36574 5.93866 1.94444 7.25926 1.94444 8.75C1.94444 10.6296 2.6088 12.2338 3.9375 13.5625C5.2662 14.8912 6.87037 15.5556 8.75 15.5556Z" fill="#9CA3AF"/>
</svg>
