<svg width="14" height="17" viewBox="0 0 14 17" fill="none" xmlns="http://www.w3.org/2000/svg">
<path d="M5.83333 14.1666H7.5V10.6875L8.83333 12.0208L10 10.8333L6.66667 7.49996L3.33333 10.8333L4.52083 12L5.83333 10.6875V14.1666ZM1.66667 16.6666C1.20833 16.6666 0.815972 16.5034 0.489583 16.177C0.163194 15.8507 0 15.4583 0 15V1.66662C0 1.20829 0.163194 0.815929 0.489583 0.48954C0.815972 0.163153 1.20833 -4.19617e-05 1.66667 -4.19617e-05H8.33333L13.3333 4.99996V15C13.3333 15.4583 13.1701 15.8507 12.8438 16.177C12.5174 16.5034 12.125 16.6666 11.6667 16.6666H1.66667ZM7.5 5.83329V1.66662H1.66667V15H11.6667V5.83329H7.5ZM1.66667 1.66662V5.83329V15V1.66662Z" fill="#F7941D"/>
</svg>
