<svg width="20" height="20" viewBox="0 0 20 20" fill="none" xmlns="http://www.w3.org/2000/svg">
<path d="M3.88889 11.6667H11.6667V9.72224H3.88889V11.6667ZM3.88889 8.75001H15.5556V6.80557H3.88889V8.75001ZM3.88889 5.83335H15.5556V3.8889H3.88889V5.83335ZM0 19.4445V1.94446C0 1.40973 0.190394 0.951981 0.571181 0.571194C0.951968 0.190407 1.40972 1.33514e-05 1.94444 1.33514e-05H17.5C18.0347 1.33514e-05 18.4925 0.190407 18.8733 0.571194C19.2541 0.951981 19.4444 1.40973 19.4444 1.94446V13.6111C19.4444 14.1458 19.2541 14.6036 18.8733 14.9844C18.4925 15.3652 18.0347 15.5556 17.5 15.5556H3.88889L0 19.4445ZM3.0625 13.6111H17.5V1.94446H1.94444V14.7049L3.0625 13.6111Z" fill="#9CA3AF"/>
</svg>
