<svg width="15" height="14" viewBox="0 0 15 14" fill="none" xmlns="http://www.w3.org/2000/svg">
<path d="M0 8.33337V6.66671H5.83333V8.33337H0ZM0 5.00004V3.33337H9.16667V5.00004H0ZM0 1.66671V4.00543e-05H9.16667V1.66671H0ZM7.5 13.3334V10.7709L12.1042 6.18754C12.2292 6.06254 12.3681 5.97226 12.5208 5.91671C12.6736 5.86115 12.8264 5.83337 12.9792 5.83337C13.1458 5.83337 13.3056 5.86462 13.4583 5.92712C13.6111 5.98962 13.75 6.08337 13.875 6.20837L14.6458 6.97921C14.7569 7.10421 14.8438 7.2431 14.9062 7.39587C14.9688 7.54865 15 7.70143 15 7.85421C15 8.00699 14.9722 8.16324 14.9167 8.32296C14.8611 8.48268 14.7708 8.62504 14.6458 8.75004L10.0625 13.3334H7.5ZM8.75 12.0834H9.54167L12.0625 9.54171L11.6875 9.14587L11.2917 8.77087L8.75 11.2917V12.0834ZM11.6875 9.14587L11.2917 8.77087L12.0625 9.54171L11.6875 9.14587Z" fill="white"/>
</svg>
