<svg width="18" height="20" viewBox="0 0 18 20" fill="none" xmlns="http://www.w3.org/2000/svg">
<path d="M1.94444 19.4445C1.40972 19.4445 0.951968 19.2541 0.571181 18.8733C0.190394 18.4925 0 18.0347 0 17.5V3.8889C0 3.35418 0.190394 2.89643 0.571181 2.51564C0.951968 2.13485 1.40972 1.94446 1.94444 1.94446H2.91667V1.33514e-05H4.86111V1.94446H12.6389V1.33514e-05H14.5833V1.94446H15.5556C16.0903 1.94446 16.548 2.13485 16.9288 2.51564C17.3096 2.89643 17.5 3.35418 17.5 3.8889V17.5C17.5 18.0347 17.3096 18.4925 16.9288 18.8733C16.548 19.2541 16.0903 19.4445 15.5556 19.4445H1.94444ZM1.94444 17.5H15.5556V7.77779H1.94444V17.5ZM1.94444 5.83335H15.5556V3.8889H1.94444V5.83335ZM8.75 11.6667C8.47454 11.6667 8.24363 11.5735 8.05729 11.3872C7.87095 11.2008 7.77778 10.9699 7.77778 10.6945C7.77778 10.419 7.87095 10.1881 8.05729 10.0017C8.24363 9.81541 8.47454 9.72224 8.75 9.72224C9.02546 9.72224 9.25637 9.81541 9.44271 10.0017C9.62905 10.1881 9.72222 10.419 9.72222 10.6945C9.72222 10.9699 9.62905 11.2008 9.44271 11.3872C9.25637 11.5735 9.02546 11.6667 8.75 11.6667ZM4.86111 11.6667C4.58565 11.6667 4.35475 11.5735 4.1684 11.3872C3.98206 11.2008 3.88889 10.9699 3.88889 10.6945C3.88889 10.419 3.98206 10.1881 4.1684 10.0017C4.35475 9.81541 4.58565 9.72224 4.86111 9.72224C5.13657 9.72224 5.36748 9.81541 5.55382 10.0017C5.74016 10.1881 5.83333 10.419 5.83333 10.6945C5.83333 10.9699 5.74016 11.2008 5.55382 11.3872C5.36748 11.5735 5.13657 11.6667 4.86111 11.6667ZM12.6389 11.6667C12.3634 11.6667 12.1325 11.5735 11.9462 11.3872C11.7598 11.2008 11.6667 10.9699 11.6667 10.6945C11.6667 10.419 11.7598 10.1881 11.9462 10.0017C12.1325 9.81541 12.3634 9.72224 12.6389 9.72224C12.9144 9.72224 13.1453 9.81541 13.3316 10.0017C13.5179 10.1881 13.6111 10.419 13.6111 10.6945C13.6111 10.9699 13.5179 11.2008 13.3316 11.3872C13.1453 11.5735 12.9144 11.6667 12.6389 11.6667ZM8.75 15.5556C8.47454 15.5556 8.24363 15.4624 8.05729 15.2761C7.87095 15.0897 7.77778 14.8588 7.77778 14.5833C7.77778 14.3079 7.87095 14.077 8.05729 13.8906C8.24363 13.7043 8.47454 13.6111 8.75 13.6111C9.02546 13.6111 9.25637 13.7043 9.44271 13.8906C9.62905 14.077 9.72222 14.3079 9.72222 14.5833C9.72222 14.8588 9.62905 15.0897 9.44271 15.2761C9.25637 15.4624 9.02546 15.5556 8.75 15.5556ZM4.86111 15.5556C4.58565 15.5556 4.35475 15.4624 4.1684 15.2761C3.98206 15.0897 3.88889 14.8588 3.88889 14.5833C3.88889 14.3079 3.98206 14.077 4.1684 13.8906C4.35475 13.7043 4.58565 13.6111 4.86111 13.6111C5.13657 13.6111 5.36748 13.7043 5.55382 13.8906C5.74016 14.077 5.83333 14.3079 5.83333 14.5833C5.83333 14.8588 5.74016 15.0897 5.55382 15.2761C5.36748 15.4624 5.13657 15.5556 4.86111 15.5556ZM12.6389 15.5556C12.3634 15.5556 12.1325 15.4624 11.9462 15.2761C11.7598 15.0897 11.6667 14.8588 11.6667 14.5833C11.6667 14.3079 11.7598 14.077 11.9462 13.8906C12.1325 13.7043 12.3634 13.6111 12.6389 13.6111C12.9144 13.6111 13.1453 13.7043 13.3316 13.8906C13.5179 14.077 13.6111 14.3079 13.6111 14.5833C13.6111 14.8588 13.5179 15.0897 13.3316 15.2761C13.1453 15.4624 12.9144 15.5556 12.6389 15.5556Z" fill="#9CA3AF"/>
</svg>
