<svg width="17" height="17" viewBox="0 0 17 17" fill="none" xmlns="http://www.w3.org/2000/svg">
<path d="M8.33333 16.6666C7.18056 16.6666 6.09722 16.4479 5.08333 16.0104C4.06945 15.5729 3.1875 14.9791 2.4375 14.2291C1.6875 13.4791 1.09375 12.5972 0.65625 11.5833C0.21875 10.5694 0 9.48607 0 8.33329C0 7.18051 0.21875 6.09718 0.65625 5.08329C1.09375 4.0694 1.6875 3.18746 2.4375 2.43746C3.1875 1.68746 4.06945 1.09371 5.08333 0.656208C6.09722 0.218708 7.18056 -4.19617e-05 8.33333 -4.19617e-05C9.23611 -4.19617e-05 10.0903 0.131903 10.8958 0.39579C11.7014 0.659679 12.4444 1.02774 13.125 1.49996L11.9167 2.72912C11.3889 2.39579 10.8264 2.13537 10.2292 1.94787C9.63195 1.76037 9 1.66662 8.33333 1.66662C6.48611 1.66662 4.9132 2.31593 3.61458 3.61454C2.31597 4.91315 1.66667 6.48607 1.66667 8.33329C1.66667 10.1805 2.31597 11.7534 3.61458 13.052C4.9132 14.3507 6.48611 15 8.33333 15C10.1806 15 11.7535 14.3507 13.0521 13.052C14.3507 11.7534 15 10.1805 15 8.33329C15 8.08329 14.9861 7.83329 14.9583 7.58329C14.9306 7.33329 14.8889 7.09024 14.8333 6.85413L16.1875 5.49996C16.3403 5.9444 16.4583 6.40274 16.5417 6.87496C16.625 7.34718 16.6667 7.83329 16.6667 8.33329C16.6667 9.48607 16.4479 10.5694 16.0104 11.5833C15.5729 12.5972 14.9792 13.4791 14.2292 14.2291C13.4792 14.9791 12.5972 15.5729 11.5833 16.0104C10.5694 16.4479 9.48611 16.6666 8.33333 16.6666ZM7.16667 12.1666L3.625 8.62496L4.79167 7.45829L7.16667 9.83329L15.5 1.47912L16.6667 2.64579L7.16667 12.1666Z" fill="#9CA3AF"/>
</svg>
