<svg width="20" height="16" viewBox="0 0 20 16" fill="none" xmlns="http://www.w3.org/2000/svg">
<path d="M19.4363 1.94363V13.6054C19.4363 14.1399 19.246 14.5975 18.8654 14.9781C18.4848 15.3588 18.0272 15.5491 17.4927 15.5491H1.94363C1.40914 15.5491 0.951571 15.3588 0.570943 14.9781C0.190314 14.5975 0 14.1399 0 13.6054V1.94363C0 1.40913 0.190314 0.951565 0.570943 0.570936C0.951571 0.190308 1.40914 -6.67572e-06 1.94363 -6.67572e-06H17.4927C18.0272 -6.67572e-06 18.4848 0.190308 18.8654 0.570936C19.246 0.951565 19.4363 1.40913 19.4363 1.94363ZM1.94363 3.88726H17.4927V1.94363H1.94363V3.88726ZM1.94363 7.77453C1.14409 9.90666 1.94363 13.6054 1.94363 13.6054C1.94363 13.6054 11.4204 13.6054 17.4927 13.6054V7.77453C17.4927 7.77453 4.07576 2.08887 1.94363 7.77453Z" fill="#1C170D"/>
</svg>
