<svg width="22" height="16" viewBox="0 0 22 16" fill="none" xmlns="http://www.w3.org/2000/svg">
<path d="M12.6336 8.74635C11.8238 8.74635 11.1354 8.4629 10.5685 7.89601C10.0016 7.32912 9.71817 6.64075 9.71817 5.8309C9.71817 5.02105 10.0016 4.33268 10.5685 3.76579C11.1354 3.19889 11.8238 2.91545 12.6336 2.91545C13.4435 2.91545 14.1318 3.19889 14.6987 3.76579C15.2656 4.33268 15.5491 5.02105 15.5491 5.8309C15.5491 6.64075 15.2656 7.32912 14.6987 7.89601C14.1318 8.4629 13.4435 8.74635 12.6336 8.74635ZM5.8309 11.6618C5.29641 11.6618 4.83884 11.4715 4.45821 11.0909C4.07758 10.7102 3.88727 10.2527 3.88727 9.71817V1.94363C3.88727 1.40913 4.07758 0.951565 4.45821 0.570936C4.83884 0.190308 5.29641 -6.67572e-06 5.8309 -6.67572e-06H19.4363C19.9708 -6.67572e-06 20.4284 0.190308 20.809 0.570936C21.1897 0.951565 21.38 1.40913 21.38 1.94363V9.71817C21.38 10.2527 21.1897 10.7102 20.809 11.0909C20.4284 11.4715 19.9708 11.6618 19.4363 11.6618H5.8309ZM7.77454 9.71817H17.4927C17.4927 9.18367 17.683 8.7261 18.0637 8.34548C18.4443 7.96485 18.9018 7.77453 19.4363 7.77453V3.88726C18.9018 3.88726 18.4443 3.69695 18.0637 3.31632C17.683 2.93569 17.4927 2.47813 17.4927 1.94363H7.77454C7.77454 2.47813 7.58423 2.93569 7.2036 3.31632C6.82297 3.69695 6.3654 3.88726 5.8309 3.88726V7.77453C6.3654 7.77453 6.82297 7.96485 7.2036 8.34548C7.58423 8.7261 7.77454 9.18367 7.77454 9.71817ZM18.4645 15.5491H1.94363C1.40914 15.5491 0.951571 15.3588 0.570943 14.9781C0.190314 14.5975 0 14.1399 0 13.6054V2.91545H1.94363V13.6054H18.4645V15.5491Z" fill="#1C170D"/>
</svg>
