<svg width="20" height="25" viewBox="0 0 20 25" fill="none" xmlns="http://www.w3.org/2000/svg">
<path d="M10 24.4814C12.7186 23.7675 14.9725 22.1912 16.7676 19.7217C18.5917 17.2122 19.5 14.4346 19.5 11.375V4.09668L10 0.53418L0.5 4.09668V11.375C0.5 14.4346 1.40829 17.2122 3.23242 19.7217C5.02753 22.1912 7.2814 23.7675 10 24.4814ZM9.84863 22.8516C7.56517 22.127 5.6858 20.6775 4.21289 18.5332C2.73854 16.3867 2 13.9961 2 11.375V5.12207L2.32422 5.00098L9.82422 2.18848L10 2.12207L10.1758 2.18848L17.6758 5.00098L18 5.12207V11.375C18 13.9961 17.2615 16.3867 15.7871 18.5332C14.3142 20.6775 12.4348 22.127 10.1514 22.8516L10 22.8994L9.84863 22.8516Z" fill="#F2A20D" stroke="black"/>
</svg>
