<svg width="30" height="25" viewBox="0 0 30 25" fill="none" xmlns="http://www.w3.org/2000/svg">
<path d="M1.25 25V9.65625C0.875 9.42708 0.572917 9.13021 0.34375 8.76562C0.114583 8.40104 0 7.97917 0 7.5C0 7.02083 0.25 6.4375 0.75 5.75C1.25 5.0625 1.83333 4.39583 2.5 3.75C3.16667 4.39583 3.75 5.0625 4.25 5.75C4.75 6.4375 5 7.02083 5 7.5C5 7.97917 4.88542 8.40104 4.65625 8.76562C4.42708 9.13021 4.125 9.42708 3.75 9.65625V15H6.25V12.5C6.25 11.9792 6.41667 11.4792 6.75 11C7.08333 10.5208 7.5625 10.2083 8.1875 10.0625C7.95833 9.70833 7.78646 9.32292 7.67188 8.90625C7.55729 8.48958 7.5 8.0625 7.5 7.625C7.5 6.79167 7.69792 6.02083 8.09375 5.3125C8.48958 4.60417 9.02083 4.02083 9.6875 3.5625L15 0L20.3125 3.5625C20.9792 4.02083 21.5104 4.60417 21.9062 5.3125C22.3021 6.02083 22.5 6.79167 22.5 7.625C22.5 8.0625 22.4427 8.48958 22.3281 8.90625C22.2135 9.32292 22.0417 9.70833 21.8125 10.0625C22.4375 10.2083 22.9167 10.5208 23.25 11C23.5833 11.4792 23.75 11.9792 23.75 12.5V15H26.25V9.65625C25.875 9.42708 25.5729 9.13021 25.3438 8.76562C25.1146 8.40104 25 7.97917 25 7.5C25 7.02083 25.25 6.4375 25.75 5.75C26.25 5.0625 26.8333 4.39583 27.5 3.75C28.1667 4.39583 28.75 5.0625 29.25 5.75C29.75 6.4375 30 7.02083 30 7.5C30 7.97917 29.8854 8.40104 29.6562 8.76562C29.4271 9.13021 29.125 9.42708 28.75 9.65625V25H16.25V20C16.25 19.6458 16.1302 19.349 15.8906 19.1094C15.651 18.8698 15.3542 18.75 15 18.75C14.6458 18.75 14.349 18.8698 14.1094 19.1094C13.8698 19.349 13.75 19.6458 13.75 20V25H1.25ZM12.375 10H17.625C18.2917 10 18.8542 9.77083 19.3125 9.3125C19.7708 8.85417 20 8.29167 20 7.625C20 7.20833 19.9062 6.82812 19.7188 6.48438C19.5312 6.14062 19.2708 5.85417 18.9375 5.625L15 3L11.0625 5.625C10.7292 5.85417 10.4688 6.14062 10.2812 6.48438C10.0938 6.82812 10 7.20833 10 7.625C10 8.29167 10.2292 8.85417 10.6875 9.3125C11.1458 9.77083 11.7083 10 12.375 10ZM3.75 22.5H11.25V20C11.25 18.9583 11.6146 18.0729 12.3438 17.3438C13.0729 16.6146 13.9583 16.25 15 16.25C16.0417 16.25 16.9271 16.6146 17.6562 17.3438C18.3854 18.0729 18.75 18.9583 18.75 20V22.5H26.25V17.5H21.25V12.5H8.75V17.5H3.75V22.5Z" fill="#F2A20D"/>
</svg>
