<svg width="20" height="16" viewBox="0 0 20 16" fill="none" xmlns="http://www.w3.org/2000/svg">
<path d="M3.88889 15.5555C2.81944 15.5555 1.90394 15.1748 1.14236 14.4132C0.380787 13.6516 0 12.7361 0 11.6667V3.88888C0 2.81943 0.380787 1.90392 1.14236 1.14235C1.90394 0.380774 2.81944 -1.33514e-05 3.88889 -1.33514e-05H15.5556C16.625 -1.33514e-05 17.5405 0.380774 18.3021 1.14235C19.0637 1.90392 19.4444 2.81943 19.4444 3.88888V11.6667C19.4444 12.7361 19.0637 13.6516 18.3021 14.4132C17.5405 15.1748 16.625 15.5555 15.5556 15.5555H3.88889ZM3.88889 3.88888H15.5556C15.912 3.88888 16.2523 3.92938 16.5764 4.0104C16.9005 4.09142 17.2083 4.22105 17.5 4.39929V3.88888C17.5 3.35415 17.3096 2.8964 16.9288 2.51561C16.548 2.13482 16.0903 1.94443 15.5556 1.94443H3.88889C3.35417 1.94443 2.89641 2.13482 2.51562 2.51561C2.13484 2.8964 1.94444 3.35415 1.94444 3.88888V4.39929C2.23611 4.22105 2.54398 4.09142 2.86806 4.0104C3.19213 3.92938 3.53241 3.88888 3.88889 3.88888ZM2.09028 7.0486C6.31418 8.07372 8.68235 8.64847 12.9062 9.6736C13.0521 9.706 13.1979 9.706 13.3438 9.6736C13.4896 9.64119 13.6273 9.57638 13.7569 9.47915L17.1354 6.65971C16.9572 6.41665 16.7303 6.21816 16.4549 6.06422C16.1794 5.91029 15.8796 5.83332 15.5556 5.83332H3.88889C3.46759 5.83332 3.09896 5.94269 2.78299 6.16144C2.46701 6.38019 2.23611 6.67591 2.09028 7.0486Z" fill="#F2A20D"/>
</svg>
