<svg width="18" height="18" viewBox="0 0 18 18" fill="none" xmlns="http://www.w3.org/2000/svg">
<path d="M9.72222 17.5V15.5556H11.6667V17.5H9.72222ZM7.77778 15.5556V10.6944H9.72222V15.5556H7.77778ZM15.5556 12.6389V8.75H17.5V12.6389H15.5556ZM13.6111 8.75V6.80556H15.5556V8.75H13.6111ZM1.94444 10.6944V8.75H3.88889V10.6944H1.94444ZM0 8.75V6.80556H1.94444V8.75H0ZM8.75 1.94444V0H10.6944V1.94444H8.75ZM1.45833 4.375H4.375V1.45833H1.45833V4.375ZM0 5.83333V0H5.83333V5.83333H0ZM1.45833 16.0417H4.375V13.125H1.45833V16.0417ZM0 17.5V11.6667H5.83333V17.5H0ZM13.125 4.375H16.0417V1.45833H13.125V4.375ZM11.6667 5.83333V0H17.5V5.83333H11.6667ZM13.6111 17.5V14.5833H11.6667V12.6389H15.5556V15.5556H17.5V17.5H13.6111ZM9.72222 10.6944V8.75H13.6111V10.6944H9.72222ZM5.83333 10.6944V8.75H3.88889V6.80556H9.72222V8.75H7.77778V10.6944H5.83333ZM6.80556 5.83333V1.94444H8.75V3.88889H10.6944V5.83333H6.80556ZM2.1875 3.64583V2.1875H3.64583V3.64583H2.1875ZM2.1875 15.3125V13.8542H3.64583V15.3125H2.1875ZM13.8542 3.64583V2.1875H15.3125V3.64583H13.8542Z" fill="#F2A20D"/>
</svg>
